<?xml version="1.0" standalone="no"?>
<!DOCTYPE svg PUBLIC "-//W3C//DTD SVG 20010904//EN"
 "http://www.w3.org/TR/2001/REC-SVG-20010904/DTD/svg10.dtd">
<svg version="1.0" xmlns="http://www.w3.org/2000/svg"
 width="381.000000pt" height="381.000000pt" viewBox="0 0 381.000000 381.000000"
 preserveAspectRatio="xMidYMid meet">
<metadata>
Created by potrace 1.11, written by Peter Selinger 2001-2013
</metadata>
<g transform="translate(0.000000,381.000000) scale(0.100000,-0.100000)"
fill="#000000" stroke="none">
<path d="M695 3802 c-131 -11 -303 -68 -353 -118 -7 -8 -17 -14 -22 -14 -11 0
-160 -149 -160 -160 0 -5 -7 -15 -15 -24 -30 -30 -94 -173 -116 -261 -23 -90
-23 -92 -24 -874 -2 -714 0 -793 16 -870 9 -48 22 -101 28 -120 15 -48 83
-181 93 -181 4 0 8 -6 8 -13 0 -19 136 -156 185 -188 76 -49 91 -57 141 -74
121 -42 146 -44 557 -45 l397 0 1 -22 c0 -13 1 -206 1 -430 0 -225 1 -408 3
-408 1 0 195 193 432 430 l430 430 434 0 c399 0 440 2 513 20 131 33 224 86
322 184 105 105 168 217 206 370 19 78 20 111 20 896 0 873 1 853 -52 995 -12
33 -24 68 -27 78 -3 9 -9 17 -14 17 -5 0 -9 5 -9 11 0 22 -65 106 -134 174
-72 70 -166 129 -256 158 -117 39 -134 39 -1370 41 -663 0 -1218 0 -1235 -2z"/>
</g>
</svg>
