<svg width="118" height="112" viewBox="0 0 118 112" fill="none" xmlns="http://www.w3.org/2000/svg">
<path d="M116.342 103.633C114.42 102.546 112.743 101.071 111.419 99.3014C110.095 97.5322 109.151 95.5069 108.648 93.3536C113.682 85.273 115.612 75.6341 114.077 66.2335C112.543 56.8329 107.648 48.3121 100.306 42.2595C92.9647 36.2069 83.6767 33.0355 74.1735 33.3364C64.6704 33.6373 55.6007 37.3899 48.6551 43.8949C41.7095 50.3999 37.3619 59.2132 36.4227 68.6922C35.4836 78.1711 38.0169 87.6687 43.5505 95.4147C49.0841 103.161 57.2404 108.627 66.4991 110.793C75.7577 112.96 85.4869 111.68 93.873 107.191C96.962 109.876 100.837 111.484 104.916 111.775C108.995 112.065 113.058 111.022 116.495 108.801C116.931 108.519 117.286 108.129 117.528 107.669C117.769 107.209 117.887 106.694 117.872 106.174C117.857 105.655 117.708 105.148 117.44 104.703C117.172 104.258 116.794 103.89 116.342 103.634V103.633ZM96.633 101.429C96.3501 101.105 96.0015 100.846 95.6106 100.668C95.2196 100.49 94.7953 100.398 94.366 100.398C93.8064 100.397 93.2581 100.555 92.784 100.853C85.8121 105.154 77.4991 106.722 69.4433 105.254C61.3874 103.787 54.1574 99.3876 49.1431 92.9026C44.1288 86.4177 41.6843 78.3046 42.2794 70.1232C42.8746 61.9418 46.4674 54.2695 52.3672 48.5814C58.267 42.8933 66.0572 39.5909 74.2403 39.3091C82.4234 39.0272 90.4217 41.7858 96.6974 47.0546C102.973 52.3233 107.083 59.7303 108.238 67.8515C109.393 75.9726 107.51 84.2347 102.952 91.0494C102.524 91.6907 102.354 92.4709 102.478 93.2324C103.239 97.905 105.478 102.209 108.865 105.51C106.649 105.952 104.355 105.809 102.211 105.094C100.067 104.379 98.1456 103.117 96.636 101.432L96.633 101.429Z" fill="white"/>
<path d="M19.687 62.6107C18.385 64.0624 16.7418 65.1655 14.9064 65.8198C13.0711 66.4742 11.1017 66.659 9.177 66.3576C12.1382 63.3439 14.0904 59.482 14.763 55.3071C14.8886 54.5455 14.719 53.7646 14.289 53.1241C11.8587 49.4894 10.2453 45.3693 9.56042 41.0486C8.87552 36.728 9.13544 32.3098 10.3222 28.0996C11.509 23.8895 13.5943 19.9878 16.4339 16.6643C19.2736 13.3408 22.7998 10.6748 26.7688 8.85071C30.7379 7.02659 35.055 6.08785 39.4217 6.09938C43.7884 6.11091 48.1005 7.07245 52.0599 8.91751C56.0193 10.7626 59.5315 13.4471 62.3536 16.7856C65.1757 20.124 67.2404 24.0367 68.405 28.2531L74.217 26.6481C72.8309 21.6431 70.3874 16.995 67.0521 13.0184C63.7168 9.04191 59.5675 5.82986 54.8852 3.5998C50.203 1.36973 45.097 0.17373 39.9132 0.0927821C34.7294 0.0118346 29.5887 1.04783 24.8393 3.13062C20.09 5.2134 15.8428 8.29434 12.3854 12.1648C8.92798 16.0352 6.34112 20.6048 4.79998 25.5641C3.25884 30.5234 2.7994 35.7565 3.45277 40.9092C4.10615 46.0618 5.85708 51.0137 8.587 55.4294C8.12188 57.3471 7.26867 59.1487 6.08024 60.7226C4.8918 62.2965 3.39345 63.6092 1.678 64.5793C1.22722 64.8343 0.849649 65.2014 0.581708 65.6451C0.313767 66.0889 0.164504 66.5943 0.148323 67.1127C0.132141 67.631 0.249586 68.1448 0.489326 68.6045C0.729067 69.0641 1.08301 69.4541 1.517 69.7368C4.68865 71.7889 8.4355 72.7632 12.2029 72.5156C15.9703 72.2681 19.5581 70.8118 22.435 68.3623C24.7103 69.5611 27.1065 70.5138 29.583 71.2046L31.211 65.3878C28.5094 64.6374 25.9264 63.5103 23.538 62.0396C22.9328 61.6639 22.2142 61.5152 21.51 61.6199C20.8057 61.7246 20.1612 62.076 19.691 62.6117L19.687 62.6107Z" fill="white"/>
</svg>
