<svg width="44" height="44" viewBox="0 0 44 44" fill="none" xmlns="http://www.w3.org/2000/svg">
<path d="M22.822 13.138C22.0247 13.138 21.418 13.3547 21.002 13.788C20.6033 14.2213 20.404 14.8627 20.404 15.712V17.324H24.616V18.884H20.456V31H18.61V18.884H16.166V17.324H18.61V15.634C18.61 14.386 18.9653 13.398 19.676 12.67C20.404 11.942 21.4267 11.578 22.744 11.578C23.264 11.578 23.7667 11.656 24.252 11.812C24.7373 11.9507 25.1447 12.1587 25.474 12.436L24.85 13.814C24.3127 13.3633 23.6367 13.138 22.822 13.138Z" fill="#F38C18"/>
<path d="M21.535 40.6453C32.0477 40.6453 40.57 32.1072 40.57 21.575C40.57 11.0427 32.0477 2.50464 21.535 2.50464C11.0223 2.50464 2.5 11.0427 2.5 21.575C2.5 32.1072 11.0223 40.6453 21.535 40.6453Z" stroke="#F38C18" stroke-width="5"/>
</svg>
