<svg width="113" height="106" viewBox="0 0 113 106" fill="none" xmlns="http://www.w3.org/2000/svg">
<path d="M54.286 51.788C54.5793 52.1318 54.9435 52.4079 55.3535 52.5972C55.7635 52.7865 56.2095 52.8845 56.661 52.8845C57.1124 52.8845 57.5585 52.7865 57.9685 52.5972C58.3785 52.4079 58.7427 52.1318 59.036 51.788L79.324 29.2152C85.211 22.654 84.875 11.7829 78.281 5.73768C72.543 0.460902 63.992 1.40966 58.739 7.25949L56.652 9.57077L54.584 7.27853C49.331 1.40966 40.78 0.460902 35.042 5.73768C28.466 11.7849 28.112 22.654 34 29.2152L54.286 51.788ZM108.311 67.1164C107.224 66.1291 105.81 65.5823 104.343 65.5823C102.876 65.5823 101.462 66.1291 100.375 67.1164L83.161 81.7234C81.0862 83.5073 78.443 84.4888 75.709 84.4905H53.671C52.8647 84.445 52.1063 84.0921 51.5516 83.5041C50.9968 82.9162 50.6877 82.1378 50.6877 81.3287C50.6877 80.5196 50.9968 79.7412 51.5516 79.1532C52.1063 78.5653 52.8647 78.2123 53.671 78.1668H68.258C69.7447 78.1655 71.183 77.6369 72.3178 76.6747C73.4527 75.7125 74.2109 74.3788 74.458 72.9101C74.6258 72.0278 74.6012 71.1196 74.3858 70.2477C74.1705 69.3759 73.7694 68.561 73.2103 67.859C72.6511 67.1569 71.9469 66.5844 71.1462 66.1806C70.3454 65.7767 69.4669 65.5512 68.571 65.5194H38.768C33.6952 65.5407 28.7984 67.385 24.968 70.717L16.3 78.1658H5.981C5.168 78.192 4.39833 78.5392 3.83988 79.1318C3.28143 79.7243 2.97952 80.514 3 81.3287V100.3C2.97978 101.114 3.28182 101.904 3.84024 102.496C4.39866 103.088 5.16818 103.435 5.981 103.462H72.45C75.182 103.453 77.8223 102.473 79.9 100.696L108.067 76.7833C108.751 76.1856 109.303 75.4521 109.689 74.6293C110.075 73.8065 110.286 72.9124 110.309 72.0035C110.332 71.0947 110.166 70.191 109.822 69.3497C109.478 68.5084 108.964 67.7479 108.311 67.1164Z" stroke="white" stroke-width="4.5"/>
</svg>
