<svg width="113" height="107" viewBox="0 0 113 107" fill="none" xmlns="http://www.w3.org/2000/svg">
<path d="M53.499 31.5716L63.3619 34.3979C63.7472 34.5074 64.08 34.7529 64.2987 35.0889C64.5175 35.425 64.6075 35.829 64.5522 36.2264C64.4969 36.6238 64.2999 36.9878 63.9977 37.251C63.6955 37.5143 63.3084 37.6592 62.9079 37.6589H56.4379C55.7379 37.6559 55.0461 37.5079 54.4059 37.2241C53.958 36.9958 53.4507 36.9114 52.9531 36.9822C52.4555 37.053 51.9918 37.2756 51.625 37.6198L48.173 41.0782C47.9244 41.322 47.7326 41.6177 47.6112 41.9442C47.4897 42.2707 47.4416 42.62 47.4702 42.9672C47.4989 43.3145 47.6036 43.6511 47.7769 43.9532C47.9502 44.2553 48.1879 44.5154 48.473 44.715C50.3578 45.9537 52.5063 46.7323 54.7459 46.9882V50.4867C54.7488 51.3236 55.0818 52.1254 55.6722 52.7175C56.2626 53.3095 57.0626 53.6438 57.8979 53.6475H61.0539C61.8902 53.6449 62.6914 53.3109 63.2827 52.7185C63.874 52.1261 64.2073 51.3234 64.2099 50.4857V47.0072C65.6676 46.8369 67.0771 46.3786 68.3569 45.659C69.6367 44.9393 70.7613 43.9726 71.6657 42.8147C72.5701 41.6568 73.2363 40.3307 73.6258 38.9131C74.0153 37.4955 74.1204 36.0147 73.9349 34.5562C73.5902 32.3313 72.6064 30.255 71.1035 28.5809C69.6007 26.9068 67.6439 25.7073 65.4719 25.1287L55.6089 22.3025C55.2237 22.193 54.8909 21.9475 54.6722 21.6114C54.4534 21.2753 54.3634 20.8713 54.4187 20.4739C54.474 20.0765 54.671 19.7126 54.9732 19.4493C55.2754 19.186 55.6625 19.0412 56.0629 19.0414H62.5329C63.233 19.0444 63.9248 19.1925 64.5649 19.4762C65.0127 19.7051 65.52 19.7902 66.0178 19.72C66.5156 19.6497 66.9797 19.4275 67.3469 19.0835L70.7989 15.6251C71.0475 15.3813 71.2393 15.0857 71.3607 14.7592C71.4822 14.4327 71.5303 14.0834 71.5017 13.7361C71.473 13.3889 71.3683 13.0522 71.195 12.7501C71.0217 12.4481 70.784 12.188 70.4989 11.9884C68.6141 10.7496 66.4656 9.97106 64.2259 9.71517V6.21569C64.2233 5.37862 63.8905 4.57652 63.3001 3.98425C62.7096 3.39197 61.9095 3.05753 61.0739 3.05383H57.9169C57.0807 3.05647 56.2795 3.39045 55.6882 3.98284C55.0969 4.57523 54.7636 5.37792 54.7609 6.21569V9.69413C53.3033 9.86447 51.8938 10.3227 50.614 11.0424C49.3342 11.762 48.2096 12.7288 47.3052 13.8867C46.4008 15.0446 45.7346 16.3707 45.3451 17.7883C44.9556 19.2058 44.8505 20.6867 45.036 22.1452C45.3809 24.3699 46.3648 26.4459 47.8676 28.1199C49.3704 29.7938 51.3272 30.9932 53.499 31.5716ZM107.999 67.8959C106.91 66.9083 105.493 66.3615 104.024 66.3615C102.555 66.3615 101.138 66.9083 100.049 67.8959L82.8519 82.501C80.775 84.2845 78.1304 85.2658 75.3949 85.2681H53.3609C52.5576 85.2184 51.8033 84.8637 51.252 84.2762C50.7006 83.6887 50.3937 82.9126 50.3937 82.1062C50.3937 81.2998 50.7006 80.5238 51.252 79.9363C51.8033 79.3488 52.5576 78.994 53.3609 78.9444H67.9379C69.5824 78.939 71.16 78.2915 72.3354 77.1392C73.5108 75.987 74.1914 74.421 74.2325 72.774C74.2737 71.127 73.6721 69.5289 72.5557 68.3192C71.4393 67.1095 69.8961 66.3837 68.2539 66.2959H38.447C33.3764 66.3116 28.4813 68.1568 24.658 71.4936L15.998 78.9444H5.66196C4.84949 78.9711 4.08048 79.3184 3.52249 79.9106C2.96449 80.5029 2.66274 81.2921 2.68296 82.1062V101.079C2.66274 101.894 2.96449 102.683 3.52249 103.275C4.08048 103.867 4.84949 104.215 5.66196 104.241H72.1209C74.8552 104.232 77.4975 103.252 79.5779 101.474L107.748 77.5608C108.432 76.9638 108.984 76.231 109.371 75.409C109.757 74.587 109.969 73.6935 109.993 72.7852C110.017 71.8768 109.853 70.9733 109.511 70.1319C109.168 69.2905 108.655 68.5294 108.004 67.8969L107.999 67.8959Z" stroke="white" stroke-width="4.5"/>
</svg>
