<svg width="41" height="41" viewBox="0 0 41 41" fill="none" xmlns="http://www.w3.org/2000/svg">
<path d="M6.027 1C4.69586 1.00684 3.42119 1.53965 2.47992 2.48267C1.53865 3.42568 1.00683 4.70272 1 6.03632V35.1332C1.00604 36.4673 1.53752 37.7451 2.47887 38.6888C3.42022 39.6324 4.69534 40.1656 6.027 40.1725H35.07C36.4022 40.1664 37.678 39.6336 38.62 38.6898C39.562 37.7461 40.0939 36.4678 40.1 35.1332V6.03632C40.0931 4.7022 39.5609 3.42471 38.619 2.48161C37.6771 1.53852 36.4016 1.00606 35.07 1H6.027ZM6.027 4.35721H35.07C35.2916 4.35171 35.512 4.39139 35.7178 4.47383C35.9236 4.55626 36.1106 4.67974 36.2673 4.83677C36.424 4.9938 36.5473 5.1811 36.6296 5.38731C36.7119 5.59351 36.7515 5.81432 36.746 6.03632V18.9061H29.887C29.4952 16.7104 28.3451 14.7228 26.6379 13.291C24.9308 11.8593 22.7754 11.0748 20.549 11.0748C18.3226 11.0748 16.1672 11.8593 14.46 13.291C12.7529 14.7228 11.6027 16.7104 11.211 18.9061H4.351V6.03632C4.34551 5.81432 4.38511 5.59351 4.4674 5.38731C4.54968 5.1811 4.67293 4.9938 4.82967 4.83677C4.98641 4.67974 5.17336 4.55626 5.37918 4.47383C5.58501 4.39139 5.8054 4.35171 6.027 4.35721ZM31.719 7.71242C31.2771 7.71242 30.8452 7.84369 30.4778 8.08962C30.1105 8.33555 29.8241 8.6851 29.655 9.09406C29.4859 9.50303 29.4417 9.95304 29.5279 10.3872C29.6141 10.8214 29.8269 11.2202 30.1393 11.5332C30.4517 11.8462 30.8498 12.0593 31.2832 12.1457C31.7165 12.2321 32.1657 12.1877 32.5739 12.0183C32.9821 11.8489 33.331 11.5621 33.5765 11.194C33.822 10.8259 33.953 10.3932 33.953 9.95056C33.9531 9.65661 33.8954 9.36551 33.7832 9.09391C33.671 8.8223 33.5064 8.57552 33.299 8.36766C33.0915 8.15981 32.8452 7.99495 32.5741 7.88252C32.3029 7.77009 32.0124 7.71229 31.719 7.71242ZM20.549 14.4248C21.7637 14.4258 22.9509 14.7876 23.9605 15.4643C24.9701 16.141 25.7569 17.1024 26.2213 18.227C26.6857 19.3515 26.8069 20.5888 26.5697 21.7823C26.3325 22.9759 25.7474 24.0722 24.8884 24.9328C24.0295 25.7933 22.9352 26.3794 21.7438 26.6171C20.5525 26.8548 19.3176 26.7333 18.1951 26.268C17.0726 25.8028 16.113 25.0146 15.4375 24.0031C14.762 22.9916 14.401 21.8022 14.4 20.5852C14.396 19.7751 14.5524 18.9723 14.86 18.2231C15.1676 17.4738 15.6204 16.7931 16.1921 16.2203C16.7639 15.6475 17.4433 15.1938 18.1912 14.8857C18.939 14.5775 19.7404 14.4209 20.549 14.4248ZM4.349 22.2583H11.21C11.6017 24.454 12.7519 26.4417 14.459 27.8735C16.1662 29.3052 18.3216 30.0897 20.548 30.0897C22.7744 30.0897 24.9298 29.3052 26.6369 27.8735C28.3441 26.4417 29.4942 24.454 29.886 22.2583H36.745V35.1332C36.7505 35.3552 36.7109 35.576 36.6286 35.7822C36.5463 35.9884 36.423 36.1757 36.2663 36.3327C36.1096 36.4897 35.9226 36.6132 35.7168 36.6957C35.511 36.7781 35.2906 36.8178 35.069 36.8123H6.027C5.8054 36.8178 5.58501 36.7781 5.37918 36.6957C5.17336 36.6132 4.98641 36.4897 4.82967 36.3327C4.67293 36.1757 4.54968 35.9884 4.4674 35.7822C4.38511 35.576 4.34551 35.3552 4.351 35.1332L4.349 22.2583Z" fill="#F38C18" stroke="#F38C18"/>
</svg>
