<svg width="57" height="108" viewBox="0 0 57 108" fill="none" xmlns="http://www.w3.org/2000/svg">
<path d="M0.718018 8.11075V100.149C0.720399 101.945 1.43369 103.667 2.70148 104.938C3.96928 106.208 5.68809 106.922 7.48102 106.925H49.661C51.4539 106.922 53.1728 106.208 54.4405 104.938C55.7083 103.667 56.4216 101.945 56.424 100.149V8.11075C56.4216 6.3145 55.7083 4.5925 54.4405 3.32235C53.1728 2.05221 51.4539 1.33759 49.661 1.33521H7.48102C5.68736 1.33521 3.96716 2.04906 2.69885 3.31972C1.43055 4.59038 0.718018 6.31377 0.718018 8.11075ZM51.626 85.6934H5.51602V19.0911H51.632L51.626 85.6934ZM49.661 102.113H7.48102C6.96081 102.113 6.46192 101.906 6.09361 101.538C5.7253 101.17 5.5176 100.67 5.51602 100.149V90.5003H51.632V100.144C51.6296 100.666 51.4212 101.167 51.0521 101.535C50.683 101.904 50.1833 102.112 49.662 102.113H49.661ZM51.626 8.11175V14.2902H5.51602V8.11175C5.51734 7.59004 5.72479 7.09008 6.09301 6.72117C6.46123 6.35227 6.96027 6.14443 7.48102 6.14311H49.661C49.9192 6.14245 50.1751 6.19292 50.4138 6.29162C50.6525 6.39032 50.8694 6.5353 51.0519 6.71824C51.2346 6.90118 51.3793 7.11846 51.4778 7.3576C51.5763 7.59675 51.6267 7.85304 51.626 8.11175Z" fill="white" stroke="white"/>
<path d="M31.112 94.0559H26.021C25.3845 94.0559 24.7741 94.3092 24.324 94.7602C23.8739 95.2111 23.621 95.8227 23.621 96.4604C23.621 97.0981 23.8739 97.7097 24.324 98.1606C24.7741 98.6115 25.3845 98.8649 26.021 98.8649H31.112C31.7485 98.8649 32.359 98.6115 32.8091 98.1606C33.2592 97.7097 33.512 97.0981 33.512 96.4604C33.512 95.8227 33.2592 95.2111 32.8091 94.7602C32.359 94.3092 31.7485 94.0559 31.112 94.0559Z" fill="white" stroke="white"/>
</svg>
