<svg width="42" height="35" viewBox="0 0 42 35" fill="none" xmlns="http://www.w3.org/2000/svg">
<path d="M27.922 3.44199C28.8517 3.4347 29.7733 3.61469 30.6322 3.97125C31.491 4.32781 32.2696 4.85368 32.9216 5.51761C32.9521 5.55326 32.9894 5.58244 33.0313 5.60343C33.0732 5.62442 33.1189 5.63679 33.1656 5.63982H33.2466C34.5458 5.34111 35.8013 4.87651 36.9823 4.25741C37.1534 4.15374 37.3296 4.05878 37.5103 3.97292C36.98 5.57975 35.9016 6.94808 34.4645 7.83765C35.1346 7.75876 35.799 7.63662 36.4534 7.47201C37.1322 7.29039 37.7969 7.05938 38.4422 6.78081C38.1364 7.25234 37.7972 7.70127 37.4273 8.12415C36.7219 8.93812 35.9311 9.67363 35.0685 10.318C35.0297 10.3456 34.9984 10.3824 34.9771 10.425C34.9558 10.4676 34.9453 10.5148 34.9465 10.5624V11.7825C34.8193 16.5216 33.0709 21.0732 29.9939 24.675C27.5071 27.6188 24.1745 29.7225 20.4506 30.6994C19.2793 31.0147 18.084 31.2325 16.8769 31.3506H13.4671C12.5091 31.3316 11.556 31.2091 10.6243 30.9849C8.38138 30.5002 6.23832 29.6328 4.28882 28.4205L4.16683 28.2983C4.69479 28.3393 5.18175 28.3794 5.71071 28.3794C7.02892 28.3869 8.34165 28.2089 9.61041 27.8505C11.3897 27.3727 13.0495 26.5272 14.483 25.3682C13.0271 25.3151 11.6218 24.8197 10.4536 23.9476C9.2854 23.0756 8.40962 21.8681 7.94254 20.4857C8.35895 20.553 8.78085 20.5802 9.20245 20.5668C9.8333 20.5662 10.4614 20.484 11.0713 20.3224C9.48109 19.9713 8.06097 19.0801 7.05161 17.8C6.0178 16.5259 5.4705 14.9247 5.50773 13.2831C6.46222 13.8256 7.53724 14.1198 8.63449 14.1386C7.16961 13.1233 6.13926 11.5933 5.74788 9.85238C5.3565 8.11143 5.63269 6.2867 6.52165 4.74025C6.62776 4.8382 6.72297 4.94735 6.80563 5.06582C9.66962 8.46077 13.5871 10.7957 17.9318 11.6974C18.8837 11.8929 19.8468 12.0287 20.8156 12.1041H20.9785C21.0595 12.1041 21.0595 12.063 21.0595 11.9418C20.9385 11.3256 20.8975 10.6963 20.9375 10.0695C20.9797 9.12422 21.2182 8.19811 21.6378 7.35034C22.0573 6.50258 22.6488 5.7518 23.3744 5.14596C24.4258 4.1797 25.7689 3.5924 27.1911 3.47705C27.3541 3.47705 27.638 3.44099 27.922 3.44099V3.44199ZM27.922 1.00175C27.5692 0.994813 27.2163 1.00853 26.8651 1.04282C24.7367 1.27863 22.7498 2.22594 21.2248 3.73191C19.6998 5.23787 18.7257 7.21464 18.4597 9.34327H18.3787C14.5483 8.55724 11.0976 6.49182 8.59149 3.48507L8.4295 3.28472L8.35151 3.1595C8.11952 2.89014 7.83212 2.67422 7.50903 2.52655C7.18593 2.37889 6.83478 2.30298 6.47965 2.30401H6.23567C5.84745 2.33564 5.47324 2.46378 5.14692 2.67683C4.82059 2.88988 4.55247 3.1811 4.36681 3.52414C3.17154 5.59002 2.80853 8.03508 3.35189 10.36C3.43619 10.777 3.55835 11.1854 3.71686 11.5802C3.30384 12.0382 3.07262 12.6319 3.06691 13.2491C3.02628 15.4452 3.7759 17.5826 5.17875 19.2705C5.31737 19.4554 5.46661 19.632 5.62572 19.7995C5.5106 20.2855 5.53873 20.7946 5.70671 21.265C6.31158 22.8986 7.31704 24.3534 8.63049 25.4954C7.68869 25.7398 6.71959 25.8626 5.74671 25.861C5.34074 25.861 4.89277 25.8199 4.44681 25.7799H4.20183C3.75335 25.7766 3.31318 25.901 2.93256 26.1387C2.55195 26.3763 2.24657 26.7174 2.05199 27.1222C1.83078 27.5583 1.74341 28.0503 1.80088 28.5361C1.85836 29.0219 2.05812 29.4797 2.37497 29.852C2.56622 30.0844 2.80049 30.2776 3.06491 30.421C5.24709 31.7925 7.65228 32.7703 10.1714 33.31C11.2673 33.5494 12.3809 33.6991 13.5011 33.7578H16.4249C16.6693 33.7658 16.9139 33.7521 17.1558 33.7167C18.5156 33.5987 19.8614 33.3536 21.1755 32.9844C25.3583 31.9408 29.0925 29.5712 31.8217 26.2287C35.2332 22.2843 37.1851 17.2835 37.3493 12.067C37.3905 11.907 37.3905 11.7392 37.3493 11.5792C38.0223 10.9968 38.6569 10.3714 39.2491 9.7069C39.6673 9.21161 40.0601 8.69538 40.4261 8.16021C40.6125 7.89666 40.7448 7.59859 40.8151 7.28334C40.8855 6.9681 40.8925 6.64198 40.8358 6.32398C40.7792 6.00597 40.6599 5.70245 40.485 5.43107C40.3101 5.15969 40.0831 4.92588 39.8171 4.74326C39.9837 4.2784 39.9991 3.77266 39.8611 3.29849C39.7232 2.82433 39.4389 2.40607 39.0492 2.10366C38.6133 1.74494 38.0692 1.54441 37.5053 1.53467C37.0918 1.54165 36.6868 1.65367 36.3284 1.86024L36.2474 1.90131C36.1159 1.97571 35.9804 2.0426 35.8414 2.10166C35.1541 2.46834 34.4332 2.76791 33.6886 2.99622C32.0488 1.69365 30.0147 0.990119 27.922 1.00175Z" fill="#F38C18" stroke="#F38C18" stroke-width="2"/>
</svg>
